<svg width="1310" height="1354" viewBox="0 0 1310 1354" fill="none" xmlns="http://www.w3.org/2000/svg">
<path d="M1020.5 810.5V634.5L1163.5 730V561.5L483 98L598.5 1.5L1309 484V1005L1020.5 810.5Z" fill="#662E91" stroke="#662E91"/>
<path d="M149.5 380V571.5L376.5 379L875.5 712.5V537L367 196L149.5 380Z" fill="#662E91" stroke="#662E91"/>
<path d="M1020 1208H874.5L876 537.5L1020 634V1208Z" fill="#662E91" stroke="#662E91"/>
<path d="M0.5 1208V1352H1019.5V1208H0.5Z" fill="#662E91" stroke="#662E91"/>
<path d="M1 506L149 381L147.5 1208H1V506Z" fill="#662E91" stroke="#662E91"/>
<path d="M476 687.5H326.5V833H476V687.5Z" fill="#662E91" stroke="#662E91"/>
<path d="M690 688H540.5V833.5H690V688Z" fill="#662E91" stroke="#662E91"/>
<path d="M476.5 895.5H327V1041H476.5V895.5Z" fill="#662E91" stroke="#662E91"/>
<path d="M690.5 896H541V1041.5H690.5V896Z" fill="#662E91" stroke="#662E91"/>
<path d="M1293.5 1208H1144V1353.5H1293.5V1208Z" fill="#662E91" stroke="#662E91"/>
</svg>
