
        <svg xmlns="http://www.w3.org/2000/svg" xmlns:xlink="http://www.w3.org/1999/xlink" version="1.1" width="3175.953079178885" height="1829.9120234604104" viewBox="0 0 3175.953079178885 1829.9120234604104">
			
			<g transform="scale(8.79765395894428) translate(10, 10)">
				<defs id="SvgjsDefs4191"><linearGradient id="SvgjsLinearGradient4200"><stop id="SvgjsStop4201" stop-color="#8f5e25" offset="0"/><stop id="SvgjsStop4202" stop-color="#fbf4a1" offset="0.5"/><stop id="SvgjsStop4203" stop-color="#8f5e25" offset="1"/></linearGradient><linearGradient id="SvgjsLinearGradient4204"><stop id="SvgjsStop4205" stop-color="#8f5e25" offset="0"/><stop id="SvgjsStop4206" stop-color="#fbf4a1" offset="0.5"/><stop id="SvgjsStop4207" stop-color="#8f5e25" offset="1"/></linearGradient><linearGradient id="SvgjsLinearGradient4208"><stop id="SvgjsStop4209" stop-color="#8f5e25" offset="0"/><stop id="SvgjsStop4210" stop-color="#fbf4a1" offset="0.5"/><stop id="SvgjsStop4211" stop-color="#8f5e25" offset="1"/></linearGradient><linearGradient id="SvgjsLinearGradient4212"><stop id="SvgjsStop4213" stop-color="#8f5e25" offset="0"/><stop id="SvgjsStop4214" stop-color="#fbf4a1" offset="0.5"/><stop id="SvgjsStop4215" stop-color="#8f5e25" offset="1"/></linearGradient></defs><g id="SvgjsG4192" featureKey="symbolFeature-0" transform="matrix(0.20445424143493965,0,0,0.20445424143493965,-4.801307711439761,42.05136677082085)" fill="#fff"><g xmlns="http://www.w3.org/2000/svg"><path d="M485.217,193.068c-4.543-23.6-11.167-34.552-14.163-36.805c-0.885,1-2.829,3.908-4.819,11.575   c-20.018,77.076-29.045,97.024-43.903,97.024c-8.134,0-14.263-6.812-22.022-15.436c-11.51-12.792-27.273-30.311-54.769-30.311   c-22.409,0-49.794,11.509-81.392,34.209c-2.02,1.451-4.658,1.72-6.928,0.711c-35.754-15.9-66.915-23.963-92.617-23.963   c-33.487,0-50.767,13.497-62.202,22.429c-6.305,4.925-11.286,8.814-17.167,8.817c-0.001,0-0.005,0-0.007,0   c-10.313,0.001-15.165-11.331-19.253-22.938c-4.618-13.112-10.047-33.194-19.75-70.542c-1.989-7.663-3.934-10.573-4.82-11.574   c-2.997,2.256-9.619,13.211-14.158,36.81c-4.82,25.051-5.019,53.188-0.546,77.197c7.291,39.138,29.717,85.791,95.157,85.791   c19.847,0,42.663-4.342,67.814-12.905c0.223-0.075,0.449-0.14,0.678-0.193c21.357-4.94,30.439-13.823,37.07-20.309   c4.678-4.575,9.096-8.896,15.768-8.896c4.053,0,8.126,1.617,13.05,5.281c4.92-3.664,8.991-5.281,13.04-5.281   c6.668,0,11.08,4.319,15.751,8.893c6.625,6.485,15.698,15.369,37.063,20.312c0.229,0.054,0.455,0.118,0.678,0.193   c25.153,8.563,47.972,12.905,67.82,12.905c65.465,0,87.895-46.661,95.182-85.806C490.241,246.251,490.039,218.116,485.217,193.068z    M217.306,271.376c-1.935,3.347-6.217,4.49-9.563,2.558c-38.538-22.272-88.626,0.082-89.127,0.31   c-0.941,0.429-1.927,0.632-2.897,0.632c-2.659,0-5.201-1.522-6.375-4.101c-1.603-3.518-0.05-7.669,3.468-9.271   c2.316-1.056,57.22-25.533,101.936,0.31C218.095,263.747,219.24,268.028,217.306,271.376z M387.139,263.876   c-1.935,3.348-6.215,4.493-9.563,2.558c-38.537-22.272-88.624,0.081-89.126,0.31c-0.941,0.429-1.928,0.632-2.897,0.632   c-2.659,0-5.2-1.522-6.374-4.101c-1.604-3.518-0.051-7.669,3.469-9.271c2.314-1.055,57.22-25.532,101.935,0.31   C387.928,256.247,389.073,260.528,387.139,263.876z"/></g></g><g id="SvgjsG4193" featureKey="textGroupContainer" transform="matrix(1,0,0,1,340,0)" fill="#fff"><rect xmlns="http://www.w3.org/2000/svg" y="0" height="1" width="1" opacity="0"/><rect xmlns="http://www.w3.org/2000/svg" y="0" x="-225" width="3" height="188"/></g><g id="SvgjsG4194" featureKey="nameFeature-0" transform="matrix(2.4802888868882786,0,0,2.4802888868882786,133.0000011826939,12.573592331531962)" fill="#fff"><path d="M9.92 17.88 c2.72 -2.44 5.44 -4 9.16 -4 c1.72 0.12 2.84 1.2 2.84 2.96 c0 0.28 -0.04 1.16 -0.48 1.16 c-0.72 0 -0.6 -1.52 -0.96 -1.92 c-0.48 -0.52 -1.24 -0.64 -1.92 -0.64 c-1.72 0 -3.28 1.72 -4.24 2.88 c-0.16 0.16 -0.76 0.92 -0.88 1.08 c-0.24 0.32 -1.04 1.44 -1.12 1.56 l-1.92 3 l-1.72 3.12 l-1.16 2.48 l-1 2.48 c-0.04 0.16 -0.44 1.36 -0.56 1.76 c-0.56 1.8 -0.92 3.72 -0.92 5.64 c0 1.32 0.24 3.2 1.92 3.2 s3.32 -1.56 4.48 -2.72 l1.44 -1.48 l1.84 -2.16 l4.84 -6.36 c0.08 -0.12 0.36 -0.12 0.48 -0.12 c0.32 0 0.44 0.2 0.44 0.48 c0 0.16 0 0.24 -0.08 0.36 l-4.08 5.48 l-2.48 2.92 l-1.64 1.72 c-0.08 0.08 -0.64 0.56 -0.76 0.68 c-1.16 1.04 -2.64 2.24 -4.28 2.4 c-4.24 0 -7.16 -1.76 -7.16 -6.36 c0 -1.4 0.24 -2.8 0.72 -4.12 l0.8 -2.32 l1.12 -2.64 l1.12 -2.28 l1.36 -2.32 l1.4 -2.08 c0.92 -1.4 2.16 -2.68 3.4 -3.84 z M29.171999999999997 14.64 l0 -0.04 c2.08 0 3.12 1.32 3.12 3.36 c0 1.08 -0.32 2.12 -0.72 3.12 l-1.24 2.92 l0 0.04 l1.8 -3 c1.32 -1.96 3.56 -4.8 6.08 -4.8 c2.2 0 3.48 1.56 3.48 3.68 c0 1.12 -0.32 2.2 -0.72 3.2 l-0.8 2.12 l0 0.04 l1.04 -1.56 l2.6 -3.52 l1.6 -1.92 c0.12 -0.12 0.92 -0.96 1.2 -1.2 c1.04 -1.04 2.64 -2.44 4.28 -2.44 c2.44 0 3.96 1.6 3.96 4.04 c0 1.04 -0.28 2.12 -0.64 3.08 l-0.64 1.84 l-4.48 10.4 l-1 2.84 l-0.52 1.88 c-0.24 0.8 -0.32 1.64 -0.32 2.48 c0 1.28 0.36 2.36 1.84 2.36 c0.16 0.08 0.28 0.24 0.28 0.44 c0 0.24 -0.12 0.52 -0.36 0.6 c-3.2 0 -5.16 -1.28 -5.16 -4.68 c0 -2.68 1 -5.28 2 -7.76 l4.08 -9.16 c0.04 -0.12 0.36 -1.04 0.48 -1.32 c0.36 -1.16 0.64 -2.44 0.64 -3.64 c0 -0.36 0.04 -1.16 -0.48 -1.28 l-0.12 0 c-0.72 0 -1.8 0.92 -2.32 1.44 l-0.84 0.84 c-0.2 0.24 -1 1.08 -1.08 1.2 l-1.6 1.92 l-2.76 3.72 l-3.68 5.68 l-1.72 3.08 l-0.8 1.76 c-0.28 0.6 -0.52 1.32 -0.64 2.04 c-0.04 0.2 -1.16 0.52 -1.44 0.52 c-0.76 0 -1 -0.72 -1 -1.36 c0 -1.08 0.4 -2.32 0.8 -3.32 l2.76 -6.68 l1.44 -3.96 l0.52 -1.84 c0.2 -0.68 0.32 -1.48 0.32 -2.24 c0 -0.52 -0.04 -1.28 -0.76 -1.28 c-2 0 -3.76 2.16 -4.8 3.64 c-0.16 0.24 -0.68 1 -0.72 1.08 l-1 1.76 l-1.32 2.56 l-2.52 5.8 l-2.44 6.72 c0 0.16 -1.28 0.36 -1.48 0.36 c-0.6 0 -1.24 -0.24 -1.64 -0.76 c-0.04 -0.08 -0.24 -0.28 -0.24 -0.44 l0.28 -1.28 l0.92 -3.52 l1.52 -4.36 l4.84 -11.56 c0.32 -0.68 0.48 -1.48 0.48 -2.24 c0 -0.52 -0.16 -0.92 -0.36 -1.4 z M30.331999999999997 24.04 l0 0 c-0.04 0 -0.04 0 0 0 z M30.291999999999998 24.08 l0 0 z M30.291999999999998 24.119999999999997 l0 -0.04 c-0.04 0 -0.04 0.04 0 0.04 z M30.251999999999995 24.16 c0.04 0 0.04 -0.04 0 -0.04 l0 0.04 z M40.172 25.28 l0 0 c-0.04 0 -0.04 0 0 0 z M40.132 25.32 c0.04 0 0.04 -0.04 0 -0.04 l0 0.04 z M55.144 32.36 l3.88 -9.12 l1.08 -2.96 c0.52 -1.48 0.8 -3.04 0.8 -4.56 c0.28 0 0.52 0.04 0.76 0.12 c1.48 0.4 2 1.72 2 3.16 c0 1.08 -0.24 2.16 -0.68 3.16 l-0.72 1.8 l0 0.04 l1.52 -2.32 c0.04 -0.08 0.8 -1 1.04 -1.36 c0.08 -0.08 0.44 -0.52 0.52 -0.6 c1.6 -1.72 3.6 -3.4 6.04 -3.4 c1.88 0 4.16 0.88 4.16 3.04 c0 1.08 -0.44 2.16 -0.84 3.08 c-1.6 3.56 -4.48 6.44 -8.04 8.04 c2.08 0.36 3.04 1.4 3.04 3.6 c0 0.4 -0.12 0.88 -0.12 1.28 l0 0.08 l1.76 -1 c1.72 -1 3.32 -2.48 4.52 -4.08 l0.04 -0.04 c0.36 0 0.84 0.08 0.84 0.56 l0 0.12 c-1.36 1.88 -3.52 3.6 -5.52 4.72 l-2 1.08 l-0.04 0.08 c-1.44 4.16 -5.4 6.92 -9.52 8.16 c-1.16 0.36 -2.32 0.64 -3.56 0.64 c-1 0 -3.52 -0.08 -3.52 -1.6 c0 -1.04 1.24 -1.8 2 -2.24 c0.16 -0.12 0.76 -0.44 0.88 -0.52 c0.28 -0.12 1.16 -0.56 1.28 -0.6 l2.68 -1.12 l4.52 -1.6 l0.04 0 l0.16 -0.32 c0.04 -0.12 0.28 -0.64 0.32 -0.72 c0.4 -1 0.76 -2.12 0.76 -3.2 c0 -1.28 -0.76 -1.48 -1.92 -1.6 l-2.28 -0.28 c-0.24 -0.04 -0.36 -0.28 -0.36 -0.48 c0 -0.28 0.2 -0.52 0.44 -0.6 c2.84 -0.28 5.4 -2.84 7.12 -4.88 c0.16 -0.24 0.92 -1.24 1.08 -1.44 c1.24 -1.64 2.88 -4.28 2.88 -6.28 c0 -0.64 -0.4 -0.8 -1 -0.8 c-2.4 0 -4.56 2.28 -5.88 4 c-0.2 0.24 -0.72 0.92 -0.76 1 l-1.2 1.84 l-1.44 2.6 l-3.36 6.96 l-0.92 2.36 c-0.44 1.04 -0.68 2.24 -0.88 3.36 c-0.48 0.24 -0.92 0.36 -1.48 0.36 c-0.6 0 -2.08 -0.52 -2.08 -1.24 c0.08 -0.24 0.32 -1.4 0.4 -1.64 c0.08 -0.32 0.4 -1.44 0.48 -1.6 z M62.224000000000004 24.04 c0.04 0 0.04 -0.04 0 -0.04 l0 0.04 z M62.224000000000004 24.08 l0 -0.04 l0 0.04 z M53.704 43.92 c0 0.6 1.48 0.68 1.88 0.68 c2.92 0 5.36 -2.08 6.96 -4.28 c0.04 -0.04 0.36 -0.52 0.48 -0.72 c0.04 -0.04 0.08 -0.12 0.08 -0.12 l0 -0.04 l-5.48 2.08 c-0.12 0.04 -1.16 0.48 -1.48 0.64 l-0.8 0.4 c-0.08 0.04 -0.52 0.28 -0.64 0.36 c-0.28 0.16 -1 0.64 -1 1 z"/></g><g id="SvgjsG4195" featureKey="sloganFeature-0" transform="matrix(0.3594466324455131,0,0,0.3594466324455131,132.6314595298271,133.8868448892045)" fill="#fff"><path d="M8.0566 20.18555 c-4.0039 0 -7.0313 -2.7344 -7.0313 -7.1582 c0 -4.4043 3.0273 -7.1484 7.0313 -7.1484 c2.9297 0 5.332 1.4844 6.377 3.9746 l-2.1777 0.83008 c-0.72266 -1.6699 -2.3047 -2.627 -4.1992 -2.627 c-2.6367 0 -4.6973 1.8359 -4.6973 4.9707 c0 3.1543 2.0605 4.9805 4.6973 4.9805 c1.8945 0 3.4766 -0.94727 4.1992 -2.6172 l2.1777 0.83008 c-1.0449 2.4902 -3.4473 3.9648 -6.377 3.9648 z M29.62351015625 8.154 l-5.4102 0 l0 3.8574 l4.7852 0 l0 2.0605 l-4.7852 0 l0 3.8379 l5.4102 0 l0 2.0898 l-7.7734 0 l0 -13.926 l7.7734 0 l0 2.0801 z M39.8623328125 17.9102 l4.5996 0 l0 2.0898 l-6.9336 0 l0 -13.926 l2.334 0 l0 11.836 z M59.43698671875 8.154 l-5.4102 0 l0 3.8574 l4.7852 0 l0 2.0605 l-4.7852 0 l0 3.8379 l5.4102 0 l0 2.0898 l-7.7734 0 l0 -13.926 l7.7734 0 l0 2.0801 z M74.382809375 12.685500000000001 c1.6113 0.42969 2.6953 1.5137 2.6953 3.4766 c0 2.2754 -1.4746 3.8379 -4.1602 3.8379 l-5.5762 0 l0 -13.926 l4.3652 0 c2.7539 0 4.3652 1.4746 4.3652 3.75 c0 1.2793 -0.57617 2.3242 -1.6895 2.8613 z M71.716809375 8.047 l-2.1191 0 l0 3.916 l2.3535 0 c1.25 0 1.9531 -0.88867 1.9531 -1.9922 c0 -1.0938 -0.76172 -1.9238 -2.1875 -1.9238 z M72.498009375 17.9687 c1.582 0 2.3145 -0.9668 2.3145 -2.0605 c0 -1.1426 -0.75195 -2.0996 -2.4023 -2.0996 l-2.8125 0 l0 4.1602 l2.9004 0 z M92.18021640625 20 l-3.6133 -6.2109 l-1.5039 0 l0 6.2109 l-2.334 0 l0 -13.926 l4.834 0 c3.0176 0 4.3457 1.8066 4.3457 4.043 c0 1.9434 -1.1523 3.252 -2.998 3.584 l4.0137 6.2988 l-2.7441 0 z M87.06301640625 8.047 l0 4.0137 l2.1582 0 c1.709 0 2.4414 -0.80078 2.4414 -1.9922 c0 -1.1816 -0.73242 -2.0215 -2.4414 -2.0215 l-2.1582 0 z M102.2138796875 20 l0 -13.926 l2.334 0 l0 13.926 l-2.334 0 z M120.93893046875 6.074 l0 2.0801 l-3.4375 0 l0 11.846 l-2.3242 0 l0 -11.846 l-3.4473 0 l0 -2.0801 l9.209 0 z M137.95490625 6.074 l-4.5801 7.2754 l0 6.6504 l-2.3438 0 l0 -6.6211 l-4.5996 -7.3047 l2.6172 0 l3.1445 5.2051 l3.1543 -5.2051 l2.6074 0 z M170.24950781249998 20 l-2.3145 0 l-0.91797 -10.996 l-3.9941 10.996 l-1.4648 0 l-3.9746 -10.977 l-0.92773 10.977 l-2.3242 0 l1.1133 -13.926 l3.252 0 l3.584 9.8438 l3.6133 -9.8438 l3.252 0 z M186.17136171875 8.154 l-5.4102 0 l0 3.8574 l4.7852 0 l0 2.0605 l-4.7852 0 l0 3.8379 l5.4102 0 l0 2.0898 l-7.7734 0 l0 -13.926 l7.7734 0 l0 2.0801 z M203.509984375 6.074 l2.334 0 l0 13.926 l-2.6172 0 l-6.8359 -10.625 l0 10.625 l-2.3145 0 l0 -13.926 l2.5879 0 l6.8457 10.557 l0 -10.557 z M214.87162890625 12.4023 l-0.19531 -6.3281 l2.1191 0 l-0.24414 6.3281 l-1.6797 0 z M230.0712453125 20.18555 c-2.9492 0 -5.1563 -1.4063 -5.6055 -3.8672 l2.4023 -0.55664 c0.25391 1.6016 1.5723 2.4805 3.291 2.4805 c1.3574 0 2.5879 -0.57617 2.5684 -2.041 c-0.019531 -1.5234 -1.709 -1.9629 -3.5352 -2.4805 c-2.1094 -0.61523 -4.2773 -1.3184 -4.2773 -3.877 c0 -2.5977 2.1289 -3.9648 4.7754 -3.9648 c2.4414 0 4.7559 1.0254 5.293 3.5254 l-2.2559 0.56641 c-0.3125 -1.4844 -1.4648 -2.1387 -2.9199 -2.1387 c-1.2988 0 -2.5293 0.55664 -2.5293 1.9727 c0 1.2891 1.4746 1.6895 3.1641 2.1582 c2.1777 0.60547 4.6973 1.3477 4.6973 4.1406 c0 2.8809 -2.4121 4.082 -5.0684 4.082 z M259.816403125 12.685500000000001 c1.6113 0.42969 2.6953 1.5137 2.6953 3.4766 c0 2.2754 -1.4746 3.8379 -4.1602 3.8379 l-5.5762 0 l0 -13.926 l4.3652 0 c2.7539 0 4.3652 1.4746 4.3652 3.75 c0 1.2793 -0.57617 2.3242 -1.6895 2.8613 z M257.150403125 8.047 l-2.1191 0 l0 3.916 l2.3535 0 c1.25 0 1.9531 -0.88867 1.9531 -1.9922 c0 -1.0938 -0.76172 -1.9238 -2.1875 -1.9238 z M257.931603125 17.9687 c1.582 0 2.3145 -0.9668 2.3145 -2.0605 c0 -1.1426 -0.75195 -2.0996 -2.4023 -2.0996 l-2.8125 0 l0 4.1602 l2.9004 0 z M279.30341015625 20 l-1.1035 -3.0957 l-6.084 0 l-1.0938 3.0957 l-2.4121 0 l5.127 -13.926 l2.8418 0 l5.127 13.926 l-2.4023 0 z M272.82861015625 14.9023 l4.668 0 l-2.334 -6.582 z M296.3193765625 20 l-3.6133 -6.2109 l-1.5039 0 l0 6.2109 l-2.334 0 l0 -13.926 l4.834 0 c3.0176 0 4.3457 1.8066 4.3457 4.043 c0 1.9434 -1.1523 3.252 -2.998 3.584 l4.0137 6.2988 l-2.7441 0 z M291.2021765625 8.047 l0 4.0137 l2.1582 0 c1.709 0 2.4414 -0.80078 2.4414 -1.9922 c0 -1.1816 -0.73242 -2.0215 -2.4414 -2.0215 l-2.1582 0 z M313.39403984375 12.685500000000001 c1.6113 0.42969 2.6953 1.5137 2.6953 3.4766 c0 2.2754 -1.4746 3.8379 -4.1602 3.8379 l-5.5762 0 l0 -13.926 l4.3652 0 c2.7539 0 4.3652 1.4746 4.3652 3.75 c0 1.2793 -0.57617 2.3242 -1.6895 2.8613 z M310.72803984375 8.047 l-2.1191 0 l0 3.916 l2.3535 0 c1.25 0 1.9531 -0.88867 1.9531 -1.9922 c0 -1.0938 -0.76172 -1.9238 -2.1875 -1.9238 z M311.50923984375 17.9687 c1.582 0 2.3145 -0.9668 2.3145 -2.0605 c0 -1.1426 -0.75195 -2.0996 -2.4023 -2.0996 l-2.8125 0 l0 4.1602 l2.9004 0 z M331.513646875 8.154 l-5.4102 0 l0 3.8574 l4.7852 0 l0 2.0605 l-4.7852 0 l0 3.8379 l5.4102 0 l0 2.0898 l-7.7734 0 l0 -13.926 l7.7734 0 l0 2.0801 z M346.86966953125 20 l-3.6133 -6.2109 l-1.5039 0 l0 6.2109 l-2.334 0 l0 -13.926 l4.834 0 c3.0176 0 4.3457 1.8066 4.3457 4.043 c0 1.9434 -1.1523 3.252 -2.998 3.584 l4.0137 6.2988 l-2.7441 0 z M341.75246953125 8.047 l0 4.0137 l2.1582 0 c1.709 0 2.4414 -0.80078 2.4414 -1.9922 c0 -1.1816 -0.73242 -2.0215 -2.4414 -2.0215 l-2.1582 0 z M361.3759328125 20.18555 c-2.9492 0 -5.1563 -1.4063 -5.6055 -3.8672 l2.4023 -0.55664 c0.25391 1.6016 1.5723 2.4805 3.291 2.4805 c1.3574 0 2.5879 -0.57617 2.5684 -2.041 c-0.019531 -1.5234 -1.709 -1.9629 -3.5352 -2.4805 c-2.1094 -0.61523 -4.2773 -1.3184 -4.2773 -3.877 c0 -2.5977 2.1289 -3.9648 4.7754 -3.9648 c2.4414 0 4.7559 1.0254 5.293 3.5254 l-2.2559 0.56641 c-0.3125 -1.4844 -1.4648 -2.1387 -2.9199 -2.1387 c-1.2988 0 -2.5293 0.55664 -2.5293 1.9727 c0 1.2891 1.4746 1.6895 3.1641 2.1582 c2.1777 0.60547 4.6973 1.3477 4.6973 4.1406 c0 2.8809 -2.4121 4.082 -5.0684 4.082 z M382.97238671875 6.074 l2.3438 0 l0 13.926 l-2.3438 0 l0 -5.9473 l-6.4648 0 l0 5.9473 l-2.3438 0 l0 -13.926 l2.3438 0 l0 5.918 l6.4648 0 l0 -5.918 z M400.07613125 20.18555 c-4.0039 0 -7.0313 -2.7441 -7.0313 -7.1582 c0 -4.4043 3.0273 -7.1484 7.0313 -7.1484 c3.9941 0 7.0215 2.7441 7.0215 7.1484 c0 4.4141 -3.0273 7.1582 -7.0215 7.1582 z M400.07613125 18.0176 c2.6367 0 4.6973 -1.8262 4.6973 -4.9902 c0 -3.1348 -2.0605 -4.9707 -4.6973 -4.9707 s-4.6973 1.8359 -4.6973 4.9707 c0 3.1641 2.0605 4.9902 4.6973 4.9902 z M420.38330390625 6.074 c2.6172 0 4.2871 1.9629 4.2871 4.3848 c0 2.4609 -1.6699 4.3457 -4.2871 4.3457 l-3.2031 0 l0 5.1953 l-2.334 0 l0 -13.926 l5.5371 0 z M420.01220390625 12.8125 c1.5625 0 2.3828 -0.95703 2.3828 -2.3828 c0 -1.377 -0.82031 -2.3828 -2.3828 -2.3828 l-2.832 0 l0 4.7656 l2.832 0 z"/></g>
			</g>
		</svg>
	